<svg xmlns="http://www.w3.org/2000/svg" width="1200" height="630" viewBox="0 0 1200 630" role="img" aria-labelledby="title desc">
  <title id="title">React Native Model Viewer WebView</title>
  <desc id="desc">Share image for a WebView-backed GLB and glTF model viewer for React Native and Expo.</desc>
  <rect width="1200" height="630" fill="#F6F7F2"/>
  <path d="M0 0h1200v630H0z" fill="#F6F7F2"/>
  <path d="M0 0h1200v630H0z" fill="url(#wash)"/>
  <rect x="82" y="82" width="1036" height="466" rx="28" fill="#FFFFFF" stroke="#D7DED0" stroke-width="2"/>
  <g transform="translate(124 132)">
    <rect width="82" height="82" rx="18" fill="#101820"/>
    <path d="M18 18h46v46H18z" fill="#D7F85C"/>
    <path d="M18 64 64 18v46z" fill="#DFE6D8"/>
    <path d="M18 18h46L18 64z" fill="#EEF9BE" opacity=".92"/>
  </g>
  <text x="124" y="274" fill="#111611" font-family="JetBrains Mono, SFMono-Regular, Consolas, Liberation Mono, Menlo, monospace" font-size="62" font-weight="800" letter-spacing="0">
    React Native Model
  </text>
  <text x="124" y="344" fill="#111611" font-family="JetBrains Mono, SFMono-Regular, Consolas, Liberation Mono, Menlo, monospace" font-size="62" font-weight="800" letter-spacing="0">
    Viewer WebView
  </text>
  <text x="126" y="416" fill="#5E665C" font-family="JetBrains Mono, SFMono-Regular, Consolas, Liberation Mono, Menlo, monospace" font-size="31" font-weight="500" letter-spacing="0">
    Simple GLB/glTF previews for Expo and React Native.
  </text>
  <g transform="translate(830 150)">
    <path d="M132 0 264 76v152l-132 76L0 228V76z" fill="#101820" opacity=".08"/>
    <path d="M132 23 243 87v129l-111 64-111-64V87z" fill="#101820"/>
    <path d="M132 23v128L21 87z" fill="#D7F85C"/>
    <path d="M132 151v129L21 216V87z" fill="#17211F"/>
    <path d="M132 151 243 87v129l-111 64z" fill="#DFE6D8"/>
    <path d="M132 23 243 87 132 151 21 87z" fill="#FFFFFF" opacity=".72"/>
  </g>
  <text x="126" y="493" fill="#23310B" font-family="JetBrains Mono, SFMono-Regular, Consolas, Liberation Mono, Menlo, monospace" font-size="25" font-weight="800" letter-spacing="0">
    WebView-backed. Agent-friendly. Honest about limitations.
  </text>
  <defs>
    <linearGradient id="wash" x1="0" x2="1200" y1="0" y2="630" gradientUnits="userSpaceOnUse">
      <stop offset="0" stop-color="#D7F85C" stop-opacity=".22"/>
      <stop offset=".52" stop-color="#DFE6D8" stop-opacity=".38"/>
      <stop offset="1" stop-color="#101820" stop-opacity=".09"/>
    </linearGradient>
  </defs>
</svg>
